<svg width="280" height="280" viewBox="0 0 280 280" fill="none" xmlns="http://www.w3.org/2000/svg">
<g filter="url(#filter0_d_489_227)">
<path d="M197.747 139.603C198.139 137.368 198.947 135.941 201.023 134.68C208.909 129.892 212.956 122.661 213.335 113.458C213.476 110.023 213.378 106.581 213.366 103.146C213.347 96.8703 210.347 93.0189 204.255 91.4147C203.962 91.3351 203.686 91.2126 203.79 91.2493C203.79 85.8366 203.857 80.8034 203.778 75.7764C203.276 44.8121 178.859 18.4034 148.062 15.4215C130.931 13.7621 114.976 16.842 101.133 27.5267C84.5406 40.3362 76.067 57.3093 76.2078 78.3848C76.2384 82.573 76.5629 86.7673 76.765 91.084C76.0548 91.28 75.4058 91.433 74.769 91.6351C70.275 93.0679 67.1709 96.111 66.8893 100.765C66.5403 106.526 66.4791 112.435 67.3607 118.111C68.5485 125.734 73.1833 131.38 79.8875 135.311C80.7691 135.831 81.5467 136.982 81.8345 137.993C83.8304 145.022 85.2203 152.266 87.7489 159.087C89.2673 163.189 92.5306 166.642 94.9123 170.445C95.4756 171.351 95.9531 172.49 95.9654 173.531C96.0511 181.093 96.0205 188.655 96.0082 196.217C96.0021 202.45 93.4612 206.02 87.6264 208.12C69.9016 214.488 52.1767 220.862 34.4519 227.236C33.8763 227.444 33.2886 227.616 32.7253 227.848C30.5273 228.773 29.5415 230.634 30.2028 232.557C30.913 234.608 32.909 235.515 35.2355 234.706C39.9132 233.078 44.5725 231.375 49.2379 229.698C63.0198 224.756 76.8078 219.827 90.5836 214.874C98.7328 211.941 103.312 205.401 103.337 196.701C103.349 191.441 103.337 186.187 103.337 180.425C104.212 181.258 104.8 181.785 105.351 182.342C110.672 187.736 116.127 193.002 122.795 196.713C124.564 197.699 126.78 198.274 128.813 198.329C136.068 198.519 143.33 198.299 150.585 198.458C153.414 198.519 155.948 197.962 158.073 196.229C163.687 191.661 169.204 186.983 174.726 182.299C175.271 181.84 175.565 181.074 175.969 180.45C176.208 180.603 176.447 180.756 176.679 180.909C176.679 185.606 176.679 190.308 176.679 195.004C176.679 206.057 180.622 211.677 191.086 215.449C208.664 221.781 226.248 228.093 243.838 234.382C244.817 234.731 245.932 235.08 246.93 234.963C248.699 234.761 249.807 233.543 249.979 231.743C250.162 229.814 249.14 228.522 247.383 227.879C242.583 226.122 237.764 224.426 232.958 222.699C219.605 217.911 206.251 213.135 192.904 208.334C186.359 205.983 184.014 202.597 184.014 195.611C184.014 188.275 183.996 180.94 184.045 173.61M140.164 191.073C136.729 191.073 133.282 191.202 129.854 191.012C128.342 190.933 126.67 190.522 125.397 189.732C118.319 185.348 112.576 179.409 106.949 173.353C98.8858 164.683 92.5429 155.254 90.3204 143.167C86.4325 122.005 84.3998 100.685 83.6039 79.242C82.8876 59.985 90.7857 44.5427 106.062 32.9946C118.484 23.608 132.744 21.2322 147.946 22.7691C174.194 25.4327 195.898 48.6696 196.37 75.0355C196.486 81.5076 195.898 88.0041 195.476 94.4762C194.441 110.17 193.027 125.832 189.941 141.281C188.704 147.49 187.675 153.913 184.124 159.252C176.367 170.898 166.938 181.056 155.495 189.249C153.616 190.59 151.669 191.233 149.324 191.104C146.287 190.945 143.219 191.073 140.164 191.073ZM202.7 98.6827C205.057 99.1175 206.006 100.489 206.025 102.54C206.055 106.349 206.172 110.157 205.976 113.954C205.737 118.65 203.9 122.691 200 126.39C200.931 116.856 201.8 107.904 202.7 98.6827ZM77.2364 98.7133C78.1487 107.769 79.0548 116.77 80.0099 126.249C76.9303 123.512 74.9772 120.511 74.6037 117.027C74.0588 111.982 74.1078 106.863 74.1139 101.781C74.1139 100.177 75.2649 99.0256 77.2364 98.7133Z" fill="white"/>
</g>
<defs>
<filter id="filter0_d_489_227" x="0" y="0" width="280" height="280" filterUnits="userSpaceOnUse" color-interpolation-filters="sRGB">
<feFlood flood-opacity="0" result="BackgroundImageFix"/>
<feColorMatrix in="SourceAlpha" type="matrix" values="0 0 0 0 0 0 0 0 0 0 0 0 0 0 0 0 0 0 127 0" result="hardAlpha"/>
<feOffset dy="15"/>
<feGaussianBlur stdDeviation="15"/>
<feComposite in2="hardAlpha" operator="out"/>
<feColorMatrix type="matrix" values="0 0 0 0 0 0 0 0 0 0 0 0 0 0 0 0 0 0 0.25 0"/>
<feBlend mode="normal" in2="BackgroundImageFix" result="effect1_dropShadow_489_227"/>
<feBlend mode="normal" in="SourceGraphic" in2="effect1_dropShadow_489_227" result="shape"/>
</filter>
</defs>
</svg>
