<svg width="256" height="238" viewBox="0 0 256 238" fill="none" xmlns="http://www.w3.org/2000/svg">
<g filter="url(#filter0_d_1_20)">
<path d="M94.008 20.4222C133.323 20.1144 156.939 36.6667 164.173 62.0788C167.411 73.4514 165.193 84.8974 164.59 96.2932C164.203 103.592 163.054 110.85 162.227 118.126C161.565 123.953 164.155 128.997 166.366 134.016C168.673 139.255 171.461 144.311 174.425 149.215C175.479 150.96 175.701 155.574 179.365 153.024C181.95 151.223 185.501 148.621 182.963 144.189C182.667 143.674 182.449 143.104 182.095 142.634C171.884 129.033 171.894 113.893 174.391 97.9166C176.777 82.6475 177.937 67.2317 171.39 52.3439C158.023 21.9507 126.844 5.55586 92.3936 11.0506C55.4031 16.9499 24.4963 46.2531 16.3006 82.9411C13.555 95.2283 16.0286 106.486 21.9171 117.274C22.7709 118.836 23.5459 120.445 24.448 121.979C31.1509 133.382 34.8701 145.356 32.2928 158.8C31.6305 162.25 32.0154 165.909 31.9796 169.474C31.8614 181.461 36.6188 185.558 48.1238 182.851C51.8413 181.978 53.547 183.207 55.183 186.22C58.0073 191.421 60.4826 196.844 64.6261 201.26C72.7537 209.923 79.7645 211.662 90.7934 207.198C96.1254 205.04 101.08 202.065 105.687 198.63C109.286 195.946 111.625 196.64 113.748 200.429C116.077 204.583 118.326 208.756 119.901 213.255C121.104 216.69 123.266 218.952 127.02 217.572C130.911 216.14 130.642 213.006 129.348 209.661C126.621 202.613 123.657 195.699 118.42 190.088C113.327 184.634 109.501 184.208 103.258 188.3C98.4557 191.448 93.7288 194.705 88.4989 197.145C80.3874 200.929 75.9933 199.81 70.5934 192.509C67.1605 187.868 64.6673 182.692 62.0291 177.593C58.0861 169.975 55.7718 169.007 48.0182 172.279C43.5132 174.18 41.6536 173.118 42.0885 168.184C42.28 166.02 42.0116 163.793 42.3803 161.669C45.2297 145.256 41.7306 130.166 32.7438 116.346C20.8575 98.0687 24.8542 80.4639 34.7914 63.1831C50.2466 36.3052 72.9202 20.9699 94.0062 20.424L94.008 20.4222Z" fill="white"/>
<path d="M203.763 107.963C214.16 93.2916 223.634 79.9215 233.113 66.5551C233.686 65.7479 234.339 64.9943 234.867 64.1603C236.741 61.1963 238.593 57.9263 234.777 55.3364C231.346 53.0078 228.726 55.4259 226.806 58.1142C213.817 76.3007 200.896 94.5355 187.986 112.777C186.413 115 185.659 117.49 187.467 119.937C189.346 122.478 191.918 121.904 194.497 121.193C202.793 118.904 211.103 116.665 219.505 114.379C220.108 117.551 218.205 118.73 217.074 120.214C204.597 136.577 192.072 152.902 179.568 169.243C178.607 170.498 177.608 171.745 176.823 173.109C175.337 175.687 175.597 178.108 178.124 179.885C180.454 181.525 182.808 180.965 184.501 178.944C188.054 174.7 191.429 170.304 194.8 165.912C208.773 147.708 222.718 129.484 236.667 111.263C237.389 110.322 238.08 109.355 238.76 108.382C240.233 106.275 240.877 104.057 239.132 101.82C237.45 99.6598 235.169 99.4862 232.689 100.184C224.883 102.377 217.071 104.553 209.256 106.714C207.957 107.071 206.627 107.317 203.763 107.963Z" fill="white"/>
<path d="M198.261 171.198C195.188 171.504 191.999 178.296 193.628 180.897C197.397 186.92 201.352 192.831 205.414 198.663C207.012 200.959 209.398 202.04 212.129 200.426C214.576 198.98 215.2 196.411 213.888 194.244C209.396 186.818 204.572 179.59 199.819 172.325C199.439 171.745 198.627 171.452 198.263 171.198H198.261Z" fill="white"/>
</g>
<defs>
<filter id="filter0_d_1_20" x="0.182129" y="0" width="255" height="237.983" filterUnits="userSpaceOnUse" color-interpolation-filters="sRGB">
<feFlood flood-opacity="0" result="BackgroundImageFix"/>
<feColorMatrix in="SourceAlpha" type="matrix" values="0 0 0 0 0 0 0 0 0 0 0 0 0 0 0 0 0 0 127 0" result="hardAlpha"/>
<feOffset dy="5"/>
<feGaussianBlur stdDeviation="7.5"/>
<feComposite in2="hardAlpha" operator="out"/>
<feColorMatrix type="matrix" values="0 0 0 0 0 0 0 0 0 0 0 0 0 0 0 0 0 0 0.25 0"/>
<feBlend mode="normal" in2="BackgroundImageFix" result="effect1_dropShadow_1_20"/>
<feBlend mode="normal" in="SourceGraphic" in2="effect1_dropShadow_1_20" result="shape"/>
</filter>
</defs>
</svg>
