<svg width="153" height="255" viewBox="0 0 153 255" fill="none" xmlns="http://www.w3.org/2000/svg">
<g filter="url(#filter0_d_2_325)">
<path d="M50.8988 13.7881C48.7792 13.6168 47.5588 14.7783 47.1413 16.7802C46.9807 17.5563 46.9807 18.3753 46.9646 19.1728C46.6167 39.0576 47.2804 58.8995 50.7275 78.5166C52.0924 86.2832 53.9818 94.023 56.4654 101.501C57.7447 105.354 58.1836 108.983 58.0016 112.896C56.6795 141.126 58.6064 169.103 64.4461 196.792C64.7994 198.473 64.5424 200.48 63.959 202.123C62.0803 207.444 60.4049 212.764 60.7796 218.497C61.074 223.046 62.5834 227.104 66.4533 229.759C67.9841 230.808 70.0074 231.685 71.8112 231.702C89.3515 231.841 106.892 231.819 124.432 231.766C130.304 231.75 134.126 228.089 134.42 222.484C134.677 217.64 132.156 215.499 125.754 214.616C121.644 214.049 117.356 213.658 113.567 212.149C107.39 209.686 101.598 206.282 95.5605 203.456C92.9271 202.22 91.8887 200.539 92.1402 197.6C93.3767 183.143 94.4525 168.675 95.6408 154.218C96.0476 149.256 96.2831 144.246 97.2145 139.375C98.3492 133.45 100.126 127.648 101.636 121.792C102.813 117.216 102.444 112.693 101.775 108.041C100.806 101.297 99.5856 94.4191 99.955 87.6802C100.656 74.8983 102.412 62.1753 103.718 49.4308C104.751 39.3359 105.768 29.2463 106.779 19.1514C107.01 16.8498 106.052 15.3083 103.707 14.9443L50.8988 13.7881Z" stroke="white" stroke-width="6" stroke-miterlimit="10"/>
<path d="M33.7271 77.0045C27.9662 82.2931 16.5086 93.4892 18.6912 114.529C20.8739 135.568 34.7067 147.268 41.1095 148.167" stroke="white" stroke-width="6" stroke-linecap="round" stroke-linejoin="round"/>
</g>
<defs>
<filter id="filter0_d_2_325" x="0.41748" y="0.771484" width="152.02" height="254.035" filterUnits="userSpaceOnUse" color-interpolation-filters="sRGB">
<feFlood flood-opacity="0" result="BackgroundImageFix"/>
<feColorMatrix in="SourceAlpha" type="matrix" values="0 0 0 0 0 0 0 0 0 0 0 0 0 0 0 0 0 0 127 0" result="hardAlpha"/>
<feOffset dy="5"/>
<feGaussianBlur stdDeviation="7.5"/>
<feComposite in2="hardAlpha" operator="out"/>
<feColorMatrix type="matrix" values="0 0 0 0 0 0 0 0 0 0 0 0 0 0 0 0 0 0 0.25 0"/>
<feBlend mode="normal" in2="BackgroundImageFix" result="effect1_dropShadow_2_325"/>
<feBlend mode="normal" in="SourceGraphic" in2="effect1_dropShadow_2_325" result="shape"/>
</filter>
</defs>
</svg>
