<svg width="223" height="281" viewBox="0 0 223 281" fill="none" xmlns="http://www.w3.org/2000/svg">
<mask id="mask0_2_272" style="mask-type:alpha" maskUnits="userSpaceOnUse" x="36" y="-4" width="149" height="265">
<path d="M48.6934 256.928C39.0449 252.951 37.5415 247.043 43.7912 238.405C45.1186 236.57 45.9683 234.343 46.8029 232.206C47.6174 230.109 47.7683 227.701 48.8442 225.78C51.0565 221.838 50.3325 217.952 49.4727 213.934C47.0845 202.747 44.5052 191.596 42.4789 180.348C40.5834 169.815 39.0549 159.13 40.7443 148.446C41.4985 143.665 42.9515 138.697 45.3398 134.534C51.328 124.091 52.2381 112.939 50.8805 101.506C49.2666 87.9153 47.0945 74.3902 44.9627 60.8652C42.7756 46.9731 41.418 33.0257 41.0812 18.9728C40.9806 14.8801 40.87 10.7874 40.7594 6.69464C40.6387 2.29523 42.8258 0.00754184 47.2604 0.00754184C64.4056 -0.00251395 81.5457 -0.00251395 98.6908 0.00754184C103.04 0.0125697 104.986 1.94328 104.981 6.25722C104.961 24.1515 105.021 42.0458 104.865 59.9401C104.775 70.1417 102.416 79.9762 99.1282 89.5795C95.7143 99.5699 94.1355 109.807 94.3316 120.365C94.4824 128.727 94.759 137.113 94.2662 145.444C93.5975 156.687 92.5115 167.919 91.1087 179.096C89.3087 193.431 87.006 207.7 84.9546 222.004C84.8389 222.794 85.0049 223.653 85.1708 224.453C85.7037 226.982 86.2317 229.521 86.8903 232.02C87.6043 234.745 88.2328 237.53 89.2987 240.125C92.4311 247.742 89.7009 253.911 81.8674 256.491C81.6563 256.561 81.5004 256.777 81.3144 256.923C70.439 256.928 59.5637 256.928 48.6934 256.928Z" stroke="white" stroke-width="7" stroke-miterlimit="10"/>
<path d="M139.522 256.928C139.477 256.858 139.442 256.742 139.382 256.727C129.984 254.304 128.521 245.661 132.247 238.491C133.584 235.917 133.434 232.608 134.459 229.823C137.23 222.276 134.635 214.98 133.71 207.63C131.433 189.479 128.692 171.384 126.716 153.203C125.882 145.515 126.219 137.651 126.535 129.893C127.189 113.93 125.278 98.4438 119.883 83.3249C116.746 74.5312 115.851 65.2597 115.851 55.9279C115.851 39.4566 115.851 22.9801 115.851 6.50875C115.851 1.85291 117.706 0.0127051 122.392 0.00767717C139.367 0.00264928 156.341 0.00264928 173.32 0.00767717C177.991 0.00767717 180.153 2.13448 180.077 6.69478C179.791 24.0812 179.052 41.4325 176.196 58.6279C174.431 69.2519 172.294 79.8356 171.037 90.5199C170.027 99.1226 169.82 107.846 169.745 116.519C169.69 122.749 172.284 128.415 175.261 133.78C180.384 143.011 181.179 152.901 180.47 163.178C179.338 179.594 175.376 195.482 171.887 211.466C171.284 214.236 170.796 217.037 170.364 219.842C170.243 220.617 170.389 221.486 170.63 222.246C171.45 224.785 172.515 227.248 173.214 229.813C174.205 233.473 175.437 236.927 177.946 239.904C179.032 241.196 179.73 242.936 180.233 244.58C181.732 249.522 179.454 254.012 174.657 255.943C173.823 256.28 172.978 256.601 172.138 256.928C161.268 256.928 150.393 256.928 139.522 256.928Z" stroke="white" stroke-width="7" stroke-miterlimit="10"/>
</mask>
<g mask="url(#mask0_2_272)">
<rect x="-5.56836" y="47.6562" width="227.92" height="248.64" fill="white"/>
</g>
<path d="M2.71973 259H220.28" stroke="white" stroke-width="5" stroke-linecap="round"/>
<path d="M127.04 259C127.04 249.845 119.618 242.424 110.464 242.424C101.309 242.424 93.8877 249.845 93.8877 259" stroke="white" stroke-width="5"/>
</svg>
