<svg width="128" height="228" viewBox="0 0 128 228" fill="none" xmlns="http://www.w3.org/2000/svg">
<path d="M11.4305 224C3.16876 220.595 1.88149 215.536 7.23291 208.139C8.36949 206.568 9.09708 204.661 9.81175 202.831C10.5092 201.036 10.6384 198.974 11.5597 197.329C13.454 193.954 12.834 190.626 12.0978 187.186C10.0528 177.607 7.84425 168.058 6.10924 158.427C4.48616 149.407 3.17737 140.259 4.62393 131.11C5.26972 127.016 6.51393 122.762 8.55892 119.197C13.6865 110.255 14.4657 100.706 13.3033 90.9164C11.9213 79.2793 10.0615 67.6982 8.23603 56.1171C6.36325 44.2217 5.20083 32.279 4.91238 20.2458C4.82628 16.7414 4.73156 13.2369 4.63685 9.73243C4.53352 5.96534 6.4063 4.00646 10.2035 4.00646C24.8844 3.99785 39.561 3.99785 54.2418 4.00646C57.9659 4.01076 59.632 5.66398 59.6277 9.35787C59.6105 24.6802 59.6621 40.0026 59.5287 55.3249C59.4512 64.0603 57.432 72.4813 54.6164 80.7043C51.6931 89.2588 50.3413 98.0243 50.5092 107.065C50.6383 114.225 50.8751 121.406 50.4532 128.54C49.8806 138.166 48.9507 147.784 47.7495 157.355C46.2083 169.629 44.2365 181.847 42.4799 194.096C42.3809 194.772 42.523 195.508 42.665 196.192C43.1214 198.358 43.5734 200.532 44.1374 202.672C44.7488 205.005 45.2869 207.39 46.1996 209.612C48.8818 216.134 46.5441 221.417 39.8365 223.625C39.6557 223.686 39.5222 223.871 39.3629 223.996C30.0507 224 20.7384 224 11.4305 224Z" stroke="white" stroke-width="7" stroke-miterlimit="10"/>
<path d="M89.2046 224C89.1659 223.94 89.1357 223.841 89.0841 223.828C81.0376 221.753 79.7848 214.352 82.9749 208.213C84.1201 206.009 83.991 203.176 84.8692 200.791C87.2414 194.328 85.0199 188.082 84.2278 181.787C82.2775 166.245 79.9311 150.751 78.2392 135.183C77.5245 128.6 77.813 121.867 78.0842 115.224C78.6439 101.555 77.0079 88.2947 72.3884 75.3488C69.7019 67.8189 68.9355 59.8801 68.9355 51.8895C68.9355 37.7856 68.9355 23.6773 68.9355 9.57332C68.9355 5.58667 70.5242 4.01095 74.5367 4.00665C89.0712 4.00234 103.606 4.00234 118.144 4.00665C122.144 4.00665 123.995 5.82776 123.931 9.73262C123.685 24.6201 123.052 39.4775 120.607 54.2015C119.096 63.2984 117.266 72.361 116.19 81.5096C115.325 88.8759 115.148 96.3455 115.083 103.772C115.036 109.106 117.258 113.958 119.806 118.552C124.193 126.456 124.874 134.925 124.267 143.725C123.298 157.781 119.905 171.386 116.917 185.072C116.401 187.444 115.983 189.842 115.613 192.245C115.51 192.908 115.634 193.652 115.841 194.303C116.543 196.477 117.456 198.586 118.054 200.782C118.902 203.916 119.957 206.874 122.105 209.423C123.035 210.529 123.634 212.019 124.064 213.426C125.347 217.659 123.397 221.503 119.29 223.156C118.575 223.445 117.852 223.72 117.133 224C107.825 224 98.5126 224 89.2046 224Z" stroke="white" stroke-width="7" stroke-miterlimit="10"/>
</svg>
