<svg width="250" height="250" viewBox="0 0 250 250" fill="none" xmlns="http://www.w3.org/2000/svg">
<g filter="url(#filter0_d_2_136)">
<path d="M195.242 229.989H191.808C189.389 228.796 188.621 226.782 188.632 224.178C188.678 207.947 188.655 191.715 188.655 175.478C188.655 173.786 188.638 172.1 187.675 170.562C186.935 170.975 186.907 171.669 186.649 172.231C180.956 184.833 171.25 192.277 157.514 193.465C144.489 194.589 134.003 189.306 126.23 178.759C124.756 176.757 124.819 176.757 123.22 178.873C115.2 189.507 104.433 194.48 91.2876 193.052C78.2052 191.629 68.8892 184.408 63.3111 172.426C63.0015 171.767 63.0015 170.861 62.0327 170.499C61.1326 172.077 61.0695 173.769 61.0695 175.478C61.0695 191.709 61.0466 207.941 61.0925 224.178C61.0982 226.782 60.3243 228.79 57.9165 229.994H54.4824C52.0976 228.778 51.295 226.782 51.3064 224.173C51.358 208.073 51.3695 191.973 51.3122 175.874C51.2892 168.675 53.7544 162.59 59.0458 157.709C60.0434 156.791 60.4561 155.799 60.33 154.491C59.642 147.58 57.7674 141.03 54.4882 134.893C53.9493 133.884 53.3015 133.453 52.0746 133.746C46.2443 135.145 40.3566 136.338 34.5549 137.847C29.3322 139.2 26.0186 142.688 24.8033 147.947C23.9032 151.842 25.0784 155.386 26.9932 158.816C30.989 165.974 33.4886 173.642 33.5631 181.884C33.6892 196.051 33.5803 210.218 33.6262 224.385C33.6319 226.926 32.7605 228.824 30.4559 229.989H27.0219C24.7459 228.813 23.8401 226.937 23.8459 224.385C23.8917 211.228 23.7656 198.07 23.9032 184.919C23.9834 177.13 22.0859 169.932 18.3193 163.187C16.846 160.548 15.6879 157.801 15 154.859V146.272C17.8263 135.61 24.7517 129.484 35.5524 127.534C38.8488 126.938 42.0879 126.02 45.3671 125.297C46.8405 124.976 47.2074 124.437 46.1296 123.181C45.2468 122.154 44.4556 121.036 43.6989 119.912C37.5933 110.827 33.9186 100.904 33.2478 89.9091C32.7605 81.9768 32.3477 74.0044 33.4485 66.1409C36.2518 46.1353 56.6953 33.1156 76.2216 38.6218C82.0691 40.2679 87.0797 43.3192 91.3679 47.5922C93.1623 49.3816 94.9567 51.1597 96.8313 53.0237C97.4104 51.9799 97.2097 51.1769 97.2097 50.414C97.2269 38.6791 97.2097 26.9442 97.2269 15.215C97.2269 12.221 98.7519 10.3111 101.251 10.0415C104.055 9.7375 106.25 11.1083 106.669 14.022C107.162 17.4461 109.3 19.2815 112.035 20.744C115.842 22.7859 120.004 23.5602 124.24 23.6003C129.509 23.652 134.646 22.8203 139.186 19.8263C141.164 18.5244 142.563 16.8955 142.907 14.3661C143.256 11.7851 144.884 10.2938 147.006 10.0472C150.25 9.67441 152.446 11.6532 152.458 15.0773C152.481 26.8811 152.458 38.6906 152.486 50.4943C152.486 51.24 152.228 52.0544 153.094 53.2359C154.911 51.2859 156.58 49.353 158.397 47.5692C165.179 40.9045 173.239 37.4001 182.871 37.4632C198.361 37.5721 212.017 47.8044 215.491 62.8831C218.002 73.7864 217.297 84.9421 215.669 95.9314C214.184 105.951 209.976 114.928 203.761 122.923C202.54 124.489 202.878 125.034 204.656 125.406C208.078 126.123 211.472 126.989 214.9 127.701C220.209 128.802 224.973 130.901 228.717 134.95C235.648 142.447 237.006 153.017 231.984 161.999C227.771 169.542 225.615 177.468 225.781 186.18C226.022 198.913 225.816 211.652 225.862 224.385C225.873 226.931 224.973 228.818 222.691 230H219.257C216.947 228.847 216.076 226.949 216.081 224.408C216.127 211.893 216.311 199.372 216.035 186.857C215.806 176.413 218.225 166.811 223.23 157.692C227.983 149.025 223.798 139.929 214.161 137.566C208.892 136.275 203.566 135.203 198.304 133.889C196.681 133.488 195.787 133.832 195.03 135.306C191.957 141.294 190.157 147.643 189.383 154.308C189.211 155.782 189.71 156.854 190.816 157.881C195.666 162.384 198.292 168.004 198.332 174.612C198.43 191.205 198.349 207.798 198.39 224.391C198.395 226.937 197.501 228.824 195.219 230L195.242 229.989ZM42.6497 79.3843C42.472 83.5311 42.6497 88.1138 43.2689 92.6449C44.7021 103.084 49.2827 112.037 56.0934 120.021C63.7583 129.008 68.1783 139.487 69.7205 151.222C70.2422 155.203 69.8753 159.229 70.5976 163.187C72.8048 175.197 83.187 183.611 95.7191 183.496C107.466 183.393 117.688 174.52 119.62 162.797C120.348 158.38 119.82 153.941 119.992 149.519C120.181 144.678 118.037 141.357 113.6 139.384C108.572 137.147 103.533 134.905 98.6257 132.427C91.5112 128.836 87.8307 122.797 87.9912 114.928C88.1403 107.506 91.8093 101.799 98.534 98.4436C105.259 95.0883 111.829 95.7823 118.037 99.9463C123.512 103.617 126.207 103.634 131.727 99.9234C136.193 96.9179 141.038 95.7536 146.404 96.7631C155.204 98.4149 162.146 106.663 161.802 115.616C161.51 123.204 157.99 129.031 151.087 132.467C145.968 135.013 140.717 137.29 135.534 139.711C131.63 141.529 129.732 144.626 129.744 148.928C129.755 152.364 129.732 155.799 129.744 159.229C129.824 174.973 144.776 186.811 160.117 183.284C171.932 180.571 179.528 170.626 179.62 157.606C179.672 150.431 181.139 143.559 183.696 136.9C186.133 130.568 189.527 124.793 193.952 119.648C202.552 109.639 206.874 98.0019 207.052 84.8618C207.138 78.7936 207.711 72.6623 206.456 66.6686C204.535 57.5319 199.06 51.1998 190.163 48.3779C181.237 45.5446 173.056 47.3742 166.073 53.7693C163.545 56.0865 161.172 58.5757 158.695 60.956C141.049 77.8874 113.445 79.1262 94.3433 63.8639C90.3073 60.6405 86.9536 56.6945 83.1125 53.2646C69.4109 41.0364 47.5227 48.0223 43.4294 65.9287C42.4491 70.2189 42.6096 74.5951 42.6612 79.3901L42.6497 79.3843ZM142.786 45.0628C142.786 40.5604 142.735 36.058 142.809 31.5555C142.838 29.7374 142.448 29.3359 140.608 30.0586C130.122 34.1939 119.574 34.1882 109.094 30.0471C107.202 29.3015 106.91 29.8119 106.915 31.567C106.961 40.503 106.967 49.4333 106.915 58.3693C106.904 59.9695 107.489 60.8528 108.945 61.455C119.574 65.8542 130.174 65.8599 140.803 61.455C142.276 60.847 142.844 59.9465 142.815 58.3578C142.735 53.9299 142.786 49.4964 142.786 45.0628ZM152.022 115.386C151.804 111.71 150.245 108.9 146.948 107.213C143.216 105.298 139.794 106.066 136.52 108.429C131.98 111.71 126.969 113.15 121.362 112.066C118.284 111.469 115.561 110.144 113.032 108.32C110.831 106.731 108.429 105.688 105.626 106.244C101.148 107.133 98.3907 110.064 97.8002 114.469C97.2842 118.334 99.4169 122.068 103.373 123.961C107.431 125.905 111.536 127.747 115.635 129.611C118.565 130.947 121.523 132.237 123.845 134.566C124.665 135.392 125.295 135.14 126.023 134.434C128.058 132.461 130.552 131.222 133.103 130.069C137.529 128.068 141.949 126.043 146.341 123.978C149.975 122.269 151.838 119.338 152.028 115.386H152.022Z" fill="white"/>
</g>
<defs>
<filter id="filter0_d_2_136" x="0" y="0" width="250" height="250" filterUnits="userSpaceOnUse" color-interpolation-filters="sRGB">
<feFlood flood-opacity="0" result="BackgroundImageFix"/>
<feColorMatrix in="SourceAlpha" type="matrix" values="0 0 0 0 0 0 0 0 0 0 0 0 0 0 0 0 0 0 127 0" result="hardAlpha"/>
<feOffset dy="5"/>
<feGaussianBlur stdDeviation="7.5"/>
<feComposite in2="hardAlpha" operator="out"/>
<feColorMatrix type="matrix" values="0 0 0 0 0 0 0 0 0 0 0 0 0 0 0 0 0 0 0.25 0"/>
<feBlend mode="normal" in2="BackgroundImageFix" result="effect1_dropShadow_2_136"/>
<feBlend mode="normal" in="SourceGraphic" in2="effect1_dropShadow_2_136" result="shape"/>
</filter>
</defs>
</svg>
