<svg width="280" height="280" viewBox="0 0 280 280" fill="none" xmlns="http://www.w3.org/2000/svg">
<g filter="url(#filter0_d_1_220)">
<path d="M30.0145 186.966C30.0152 186.964 30.0156 186.963 30.0156 186.961C30.0156 181.097 30.0376 175.231 30.0067 169.366C29.9891 165.822 30.1655 162.27 30.4787 158.763C30.9992 152.955 31.4668 147.123 32.649 141.384C34.3759 132.991 36.5263 124.72 39.667 116.732C42.6379 109.175 46.3189 101.993 50.988 95.3203C54.325 90.5509 58.1406 86.2106 62.3973 82.2596C66.8524 78.1238 71.8127 74.6545 77.192 71.8321C81.3208 69.6674 85.6392 67.8965 90.1583 66.7019C93.524 65.8132 96.9646 65.2896 100.432 64.9178C102.977 64.645 105.504 64.183 108.028 63.7431C112.397 62.9797 116.781 62.2867 121.111 61.343C126.658 60.1352 132.185 58.8329 137.659 57.3106C141.971 56.1138 146.243 54.7917 150.478 53.3684C153.594 52.3212 156.651 51.0915 159.701 49.8397C164.357 47.928 168.922 45.8403 173.356 43.4799C181.029 39.3903 188.197 34.5637 194.39 28.415C197.204 25.6189 199.716 22.5787 201.646 19.0699C203.115 16.3992 205.406 14.9891 208.565 15.0001C219.076 15.0331 229.588 15.0067 240.1 15.0177C243.492 15.0199 246.165 17.7455 246.132 21.1224C246.103 24.145 243.368 26.8861 240.324 26.8905C231.026 26.9037 221.727 26.9125 212.429 26.8729C211.386 26.8685 210.766 27.2117 210.181 28.0586C206.002 34.1171 200.786 39.1659 194.976 43.6691C189.182 48.1612 182.956 51.9604 176.446 55.2801C170.074 58.5271 163.495 61.3232 156.739 63.7233C152.729 65.1466 148.713 66.5545 144.626 67.7029C140.539 68.8512 136.483 70.1206 132.308 70.9851C129.373 71.5923 126.479 72.4546 123.528 73.0024C119.207 73.801 114.915 74.7381 110.566 75.4047C105.897 76.1219 101.219 76.795 96.5566 77.5474C93.2196 78.0864 90.0084 79.1687 86.9052 80.515C80.8973 83.1197 75.4408 86.6109 70.6151 91.0239C65.4144 95.7801 61.1577 101.297 57.5274 107.343C54.8367 111.826 52.6355 116.525 50.7167 121.356C49.0538 125.538 47.7238 129.841 46.5769 134.199C45.4676 138.412 44.5809 142.671 43.873 146.963C43.487 149.301 43.2576 151.668 42.9444 154.016C42.2982 158.855 42.4482 163.733 41.9718 168.574C41.8394 169.919 41.9188 171.285 41.9188 172.642C41.9166 184.189 41.8218 195.739 41.9806 207.284C42.0225 210.361 39.2369 213.553 36.1337 213.569C32.7945 213.584 29.9781 210.742 30.0001 207.315C30.0464 200.533 30.0134 193.752 30.0134 186.97C30.0134 186.969 30.0137 186.967 30.0145 186.966Z" fill="white"/>
</g>
<g filter="url(#filter1_d_1_220)">
<path d="M106.111 199.269C106.111 199.268 106.109 199.268 106.109 199.269C105.172 201.027 104.255 202.764 103.325 204.494C102.075 206.817 100.754 209.097 99.2516 211.27C97.0218 214.497 91.2521 214.31 89.3355 210.509C88.2063 208.267 88.3386 206.122 89.6862 204.087C92.0594 200.499 94.0333 196.696 95.8617 192.822C98.0033 188.281 99.728 183.584 100.813 178.661C101.305 176.424 101.444 174.18 101.446 171.912C101.453 162.82 101.475 153.73 101.437 144.638C101.422 141.001 103.844 138.795 106.951 138.506C110.085 138.216 113.27 140.427 113.338 144.301C113.46 151.008 113.374 157.718 113.376 164.426C113.376 167.285 113.376 170.145 113.376 173.003C113.378 178.366 113.843 183.688 115.244 188.877C116.814 194.705 119.476 200.011 123.215 204.776C127.608 210.375 132.987 214.75 139.377 217.903C143.814 220.092 148.446 221.605 153.358 222.335C155.762 222.694 158.157 222.923 160.579 222.923C181.309 222.927 202.036 222.905 222.766 222.956C224.908 222.96 226.632 222.192 228.187 220.917C230.891 218.697 232.627 215.791 233.917 212.583C235.565 208.485 236.526 204.235 237.153 199.866C237.761 195.611 237.836 191.343 237.951 187.071C237.984 185.868 237.801 184.66 237.775 183.455C237.72 180.868 238.866 178.85 241.116 177.691C244.711 175.836 249.237 178.146 249.682 182.176C250.212 186.97 250.004 191.781 249.605 196.553C249.067 203.007 247.944 209.385 245.635 215.492C243.628 220.796 240.904 225.635 236.612 229.481C233.736 232.057 230.377 233.705 226.714 234.804C226.11 234.985 225.483 234.991 224.855 234.991C203.06 234.989 181.264 235.027 159.472 234.958C155.032 234.945 150.652 234.18 146.318 233.15C141.316 231.962 136.583 230.088 132.092 227.661C127.399 225.125 123.12 221.966 119.278 218.237C113.709 212.832 109.371 206.589 106.296 199.472C106.272 199.415 106.208 199.375 106.111 199.27C106.111 199.27 106.111 199.269 106.111 199.269Z" fill="white"/>
</g>
<g filter="url(#filter2_d_1_220)">
<path d="M173.349 98.5234C170.171 96.8976 166.962 95.3907 163.677 94.0444C160.592 92.7772 157.5 91.5387 154.363 90.3992C151.845 89.484 150.285 86.3646 150.888 83.6235C151.525 80.7196 154.236 78.6869 157.076 78.9223C158.197 79.0147 159.242 79.3711 160.254 79.7649C168.805 83.0845 177.233 86.6747 185.364 90.9425C190.367 93.5692 195.305 96.3015 200.075 99.3197C205.565 102.793 210.874 106.522 215.86 110.7C219.321 113.599 222.66 116.628 225.724 119.942C228.882 123.356 231.873 126.913 234.246 130.939C236.03 133.966 234.458 137.536 232.159 138.894C229.369 140.541 225.876 139.842 224.098 137.118C219.623 130.261 213.9 124.555 207.621 119.385C200.894 113.848 193.569 109.177 185.986 104.896C184.548 104.085 183.075 103.346 181.637 102.545L173.349 98.5234Z" fill="white"/>
</g>
<defs>
<filter id="filter0_d_1_220" x="0" y="0" width="276.132" height="258.569" filterUnits="userSpaceOnUse" color-interpolation-filters="sRGB">
<feFlood flood-opacity="0" result="BackgroundImageFix"/>
<feColorMatrix in="SourceAlpha" type="matrix" values="0 0 0 0 0 0 0 0 0 0 0 0 0 0 0 0 0 0 127 0" result="hardAlpha"/>
<feOffset dy="15"/>
<feGaussianBlur stdDeviation="15"/>
<feComposite in2="hardAlpha" operator="out"/>
<feColorMatrix type="matrix" values="0 0 0 0 0 0 0 0 0 0 0 0 0 0 0 0 0 0 0.25 0"/>
<feBlend mode="normal" in2="BackgroundImageFix" result="effect1_dropShadow_1_220"/>
<feBlend mode="normal" in="SourceGraphic" in2="effect1_dropShadow_1_220" result="shape"/>
</filter>
<filter id="filter1_d_1_220" x="58.5732" y="123.481" width="221.427" height="156.519" filterUnits="userSpaceOnUse" color-interpolation-filters="sRGB">
<feFlood flood-opacity="0" result="BackgroundImageFix"/>
<feColorMatrix in="SourceAlpha" type="matrix" values="0 0 0 0 0 0 0 0 0 0 0 0 0 0 0 0 0 0 127 0" result="hardAlpha"/>
<feOffset dy="15"/>
<feGaussianBlur stdDeviation="15"/>
<feComposite in2="hardAlpha" operator="out"/>
<feColorMatrix type="matrix" values="0 0 0 0 0 0 0 0 0 0 0 0 0 0 0 0 0 0 0.25 0"/>
<feBlend mode="normal" in2="BackgroundImageFix" result="effect1_dropShadow_1_220"/>
<feBlend mode="normal" in="SourceGraphic" in2="effect1_dropShadow_1_220" result="shape"/>
</filter>
<filter id="filter2_d_1_220" x="120.758" y="63.9038" width="144.258" height="120.872" filterUnits="userSpaceOnUse" color-interpolation-filters="sRGB">
<feFlood flood-opacity="0" result="BackgroundImageFix"/>
<feColorMatrix in="SourceAlpha" type="matrix" values="0 0 0 0 0 0 0 0 0 0 0 0 0 0 0 0 0 0 127 0" result="hardAlpha"/>
<feOffset dy="15"/>
<feGaussianBlur stdDeviation="15"/>
<feComposite in2="hardAlpha" operator="out"/>
<feColorMatrix type="matrix" values="0 0 0 0 0 0 0 0 0 0 0 0 0 0 0 0 0 0 0.25 0"/>
<feBlend mode="normal" in2="BackgroundImageFix" result="effect1_dropShadow_1_220"/>
<feBlend mode="normal" in="SourceGraphic" in2="effect1_dropShadow_1_220" result="shape"/>
</filter>
</defs>
</svg>
