<svg width="162" height="290" viewBox="0 0 162 290" fill="none" xmlns="http://www.w3.org/2000/svg">
<g filter="url(#filter0_d_489_290)">
<path d="M107.911 27.3957C107.863 32.0343 109.387 36.2493 111.381 40.3414C114.326 46.3668 113.356 49.803 107.474 53.007C99.9454 57.1127 91.9321 59.8726 83.4268 61.1843C78.9932 61.8674 74.9694 60.993 71.2599 58.5132C70.7681 58.1784 70.2557 57.8642 69.757 57.5431C64.7768 54.3596 62.9255 54.9813 60.8966 60.4943C58.6627 66.5538 52.3913 69.3821 46.038 66.8954C40.0058 64.5386 35.9206 60.0639 33.6525 54.0454C32.5458 51.101 32.7439 48.1088 35.0462 45.6836C37.3006 43.3131 40.163 42.7392 43.2713 43.4907C44.5898 43.8118 45.8399 44.3788 47.1379 44.7819C51.0455 46.0047 54.2017 43.2448 53.5937 39.1937C53.3409 37.52 52.849 35.8121 52.9788 34.1589C53.3409 29.6228 56.9138 26.289 61.3269 27.1361C72.8585 29.3563 82.9896 25.4419 93.0319 20.7418C94.3436 20.127 95.6347 19.478 96.96 18.8836C102.698 16.315 107.788 19.56 107.904 25.8518C107.925 26.371 107.911 26.8833 107.911 27.3957Z" stroke="white" stroke-width="6" stroke-miterlimit="10"/>
<path d="M104.238 195.583C99.2716 194.886 93.6014 194.285 88.0065 193.24C83.3064 192.359 79.5627 189.722 76.9804 185.595C76.5774 184.946 76.1401 184.318 75.6893 183.689C72.8474 179.741 70.6818 179.625 67.3343 183.245C62.7641 188.185 56.4108 188.806 51.4169 184.42C46.0201 179.679 43.5812 173.435 44.4556 166.344C45.2413 159.977 51.253 157.457 56.7182 160.845C57.859 161.555 58.836 162.546 59.8334 163.468C63.3242 166.7 67.4027 165.49 68.5162 160.865C68.7758 159.793 68.8714 158.666 69.2335 157.634C70.8867 152.866 75.9284 150.372 80.1092 153.105C91.0738 160.278 103.152 159.964 115.401 159.445C117.204 159.369 119.199 159.643 120.818 160.38C123.988 161.822 125.436 165.695 123.899 169.125C121.412 174.686 121.009 180.417 121.303 186.361C121.529 190.863 119.356 193.643 114.868 194.476C111.63 195.084 108.289 195.187 104.238 195.583Z" stroke="white" stroke-width="6" stroke-miterlimit="10"/>
<path d="M97.9664 241.336C91.292 240.093 84.5903 239.006 77.9638 237.551C72.8812 236.438 69.1238 233.316 66.6782 228.677C66.3229 228.001 65.9335 227.338 65.51 226.696C63.0916 223.021 60.6801 222.618 57.6947 225.897C52.7966 231.287 44.5168 230.788 39.7826 224.421C36.3395 219.789 34.9049 214.495 35.4514 208.777C36.1072 202.007 42.6859 199.076 48.2468 203.011C49.4081 203.831 50.3509 204.986 51.3551 206.017C54.4498 209.214 58.576 208.326 59.9628 204.132C60.3112 203.086 60.5093 201.98 60.9124 200.955C62.8662 195.975 68.1128 193.782 72.3346 196.931C81.8851 204.07 92.8155 205.143 104.087 205.341C105.87 205.375 107.688 205.314 109.43 205.628C114.369 206.516 117.033 211.161 114.806 215.65C112.067 221.156 111.062 226.867 111.076 232.926C111.09 237.319 108.261 240.113 103.705 240.53C101.847 240.701 99.9612 240.557 98.0894 240.557C98.0484 240.817 98.0074 241.076 97.9664 241.336Z" stroke="white" stroke-width="6" stroke-miterlimit="10"/>
<path d="M105.031 149.826C101.02 149.56 97.9531 149.471 94.9131 149.129C91.3402 148.733 88.2114 147.264 85.6496 144.689C84.5702 143.603 83.5523 142.448 82.4319 141.396C79.4124 138.547 76.8779 138.623 74.9856 142.23C71.7133 148.453 63.0032 150.919 56.0829 144.211C52.2367 140.481 49.7227 135.924 49.2855 130.548C48.7048 123.306 54.8805 119.351 61.3636 122.651C62.4157 123.19 63.3447 123.969 64.3558 124.604C68.0038 126.9 71.6928 125.13 72.171 120.84C72.2735 119.911 72.1915 118.962 72.2667 118.032C72.7039 112.67 77.4586 108.81 82.2817 110.934C94.3529 116.27 106.301 114.111 118.366 111.536C123.674 110.402 127.479 112.547 128.271 117.213C128.449 118.265 128.381 119.453 128.08 120.478C126.57 125.718 126.946 130.917 128.114 136.143C129.426 142.011 127.622 145.427 121.734 146.848C115.961 148.241 110.031 148.965 105.031 149.826Z" stroke="white" stroke-width="6" stroke-miterlimit="10"/>
<path d="M93.1233 105.382C88.6077 105.737 84.7274 104.255 81.257 101.488C80.4577 100.853 79.6516 100.217 78.7977 99.6572C75.4912 97.4779 73.0592 97.9971 71.7544 101.748C69.2336 108.969 60.783 112.043 53.2137 106.625C49.0192 103.619 46.027 99.6367 44.565 94.6224C43.6428 91.4526 44.0117 88.4877 46.5325 86.1513C49.0328 83.8354 52.0524 83.7056 55.1539 84.6416C56.2811 84.9831 57.3194 85.6116 58.4193 86.0762C62.4772 87.7909 65.8861 85.2632 65.5514 80.8501C65.4148 79.0876 65.1347 77.2499 65.4762 75.5557C66.3165 71.3543 70.1422 68.4919 74.2001 69.6396C85.2261 72.7684 95.4187 69.8582 105.591 66.1077C107.346 65.4587 109.068 64.7141 110.844 64.1266C116.344 62.3026 121.317 66.0052 120.723 71.7778C120.162 77.2226 121.262 82.2505 123.257 87.217C125.477 92.7574 124.152 96.3644 118.7 98.8852C110.585 102.636 102.018 104.74 93.1233 105.382Z" stroke="white" stroke-width="6" stroke-miterlimit="10"/>
</g>
<defs>
<filter id="filter0_d_489_290" x="0.00244141" y="0.000488281" width="161.517" height="289.85" filterUnits="userSpaceOnUse" color-interpolation-filters="sRGB">
<feFlood flood-opacity="0" result="BackgroundImageFix"/>
<feColorMatrix in="SourceAlpha" type="matrix" values="0 0 0 0 0 0 0 0 0 0 0 0 0 0 0 0 0 0 127 0" result="hardAlpha"/>
<feOffset dy="15"/>
<feGaussianBlur stdDeviation="15"/>
<feComposite in2="hardAlpha" operator="out"/>
<feColorMatrix type="matrix" values="0 0 0 0 0 0 0 0 0 0 0 0 0 0 0 0 0 0 0.25 0"/>
<feBlend mode="normal" in2="BackgroundImageFix" result="effect1_dropShadow_489_290"/>
<feBlend mode="normal" in="SourceGraphic" in2="effect1_dropShadow_489_290" result="shape"/>
</filter>
</defs>
</svg>
